<?xml version="1.0" encoding="utf-8"?>
<svg xmlns="http://www.w3.org/2000/svg" viewBox="2866.4048 1465.1028 1236.4702 1236.4739" width="32px" height="32px" preserveAspectRatio="none"><g id="object-4" transform="matrix(0.9999999999999999, 0, 0, 1, 5.684341886080802e-14, 0)"><ellipse style="stroke: rgb(0, 0, 0); fill: rgb(255, 255, 255);" cx="3484.64" cy="2083.34" rx="618.235" ry="618.237" id="object-2"/><g transform="matrix(1, 0, 0, 1, 663.428863, 530.380334)" id="object-3"><g id="group-1" transform="matrix(1, 0, 0, 1, -317.504714, 313.896956)"><g id="group-2"><path d="M 3441.72 1112.56 L 3524.72 1112.56 L 3536.72 1118.56 L 3541.72 1125.56 L 3542.72 1129.56 L 3542.72 1142.56 L 3536.668 1165.386 L 3531.72 1179.56 L 3524.72 1191.56 L 3516.72 1198.56 L 3509.72 1202.56 L 3505.72 1203.56 L 3511.72 1255.56 L 3474.72 1255.56 L 3468.72 1208.56 L 3454.72 1208.56 L 3439.72 1255.56 L 3402.72 1255.56 L 3442.72 1124.56 L 3441.72 1112.56 Z M 3475.72 1140.56 L 3464.72 1178.56 L 3488.72 1178.56 L 3494.72 1174.56 L 3498.72 1167.56 L 3503.72 1152.56 L 3503.72 1144.56 L 3498.72 1140.56 L 3475.72 1140.56 Z" style="stroke-width: 1;"/><path d="M 3222.72 1292.56 L 3262.72 1292.56 L 3232.72 1390.56 L 3232.72 1399.56 L 3239.72 1403.56 L 3250.72 1403.56 L 3259.72 1400.56 L 3264.72 1395.56 L 3297.72 1292.56 L 3335.72 1292.56 L 3300.72 1407.56 L 3292.72 1419.56 L 3284.72 1426.56 L 3274.72 1431.56 L 3268.72 1433.56 L 3261.72 1434.56 L 3212.72 1434.56 L 3202.72 1431.56 L 3193.72 1425.56 L 3189.72 1418.56 L 3189.72 1400.56 L 3222.72 1292.56 Z" fill="#044DFC" style="stroke-width: 1;"/><path d="M 3130.72 1292.56 L 3204.72 1292.56 L 3202.72 1301.56 L 3196.72 1322.56 L 3195.72 1323.56 L 3142.72 1324.56 L 3135.72 1327.56 L 3130.72 1335.56 L 3112.72 1392.56 L 3112.72 1399.56 L 3114.72 1402.56 L 3129.72 1403.56 L 3136.72 1400.56 L 3143.72 1377.56 L 3129.72 1377.56 L 3138.72 1348.56 L 3190.72 1348.56 L 3171.72 1412.56 L 3165.72 1421.56 L 3157.72 1428.56 L 3145.72 1433.56 L 3141.72 1434.56 L 3090.72 1434.56 L 3079.72 1430.56 L 3074.72 1426.56 L 3069.72 1416.56 L 3069.72 1404.56 L 3102.72 1307.56 L 3111.72 1299.56 L 3121.72 1294.56 L 3130.72 1292.56 Z" fill="#034DFC" style="stroke-width: 1;"/><path d="M 3000.72 1292.56 L 3063.72 1292.56 L 3058.72 1434.56 L 3019.72 1434.56 L 3020.72 1405.56 L 2983.72 1406.56 L 2967.72 1434.56 L 2927.72 1434.56 L 2984.72 1335.56 L 3003.72 1303.56 L 3000.72 1292.56 Z M 3024.72 1330.56 L 3000.72 1375.56 L 3023.72 1375.56 L 3025.72 1330.56 L 3024.72 1330.56 Z" fill="#044EFC" style="stroke-width: 1;"/><path d="M 3373.72 1292.56 L 3432.72 1292.56 L 3431.16 1433.622 L 3390.72 1434.56 L 3391.72 1405.56 L 3354.72 1405.56 L 3339.72 1434.56 L 3299.72 1434.56 L 3375.72 1303.56 L 3373.72 1292.56 Z M 3396.72 1330.56 L 3372.72 1375.56 L 3394.72 1375.56 L 3396.72 1330.56 Z" fill="#034DFC" style="stroke-width: 1;"/><path d="M 2859.72 1292.56 L 2975.72 1292.56 L 2965.72 1323.56 L 2914.72 1323.56 L 2907.72 1348.56 L 2948.72 1348.56 L 2938.72 1377.56 L 2898.72 1378.56 L 2881.72 1434.56 L 2842.72 1434.56 L 2878.72 1306.56 L 2859.72 1292.56 Z" fill="#034EFC" style="stroke-width: 1;"/><path d="M 2738.72 1112.56 L 2775.72 1112.56 L 2732.72 1255.56 L 2696.72 1255.56 L 2738.72 1112.56 Z" style="stroke-width: 1;"/><path d="M 2892.72 1112.56 L 2929.72 1112.56 L 2886.376 1255.487 L 2849.72 1255.56 L 2892.72 1112.56 Z" style="stroke-width: 1;"/><path d="M 3566.72 1112.56 L 3603.72 1112.56 L 3559.72 1255.56 L 3523.72 1255.56 L 3566.72 1112.56 Z" style="stroke-width: 1;"/><path d="M 3095.72 1255.56 L 3137.72 1112.56 L 3223.72 1112.56 L 3215.72 1140.56 L 3166.72 1140.56 L 3159.72 1166.56 L 3201.72 1166.56 L 3193.72 1196.56 L 3149.72 1196.56 L 3141.72 1225.56 L 3190.72 1225.56 L 3180.72 1255.56 L 3095.72 1255.56 Z" style="stroke-width: 1;"/><path d="M 3298.72 1255.56 L 3341.72 1112.56 L 3428.72 1112.56 L 3419.72 1140.56 L 3370.72 1141.56 L 3363.72 1166.56 L 3405.72 1166.56 L 3396.72 1196.56 L 3353.72 1197.56 L 3344.72 1225.56 L 3393.72 1225.56 L 3384.72 1255.56 L 3298.72 1255.56 Z" style="stroke-width: 1;"/><path d="M 3001.72 1255.56 L 3045.72 1112.56 L 3082.72 1112.56 L 3048.72 1225.56 L 3089.72 1225.56 L 3081.72 1255.56 L 3001.72 1255.56 Z" style="stroke-width: 1;"/><path d="M 3232.72 744.564 L 3254.72 747.564 L 3259.72 751.564 L 3259.72 757.564 L 3259.72 778.564 L 3263.72 789.564 L 3270.72 797.564 L 3278.72 802.564 L 3281.72 803.564 L 3296.72 803.564 L 3306.72 799.564 L 3316.72 790.564 L 3328.72 774.564 L 3337.72 775.564 L 3354.72 784.564 L 3353.72 791.564 L 3349.72 806.564 L 3349.72 817.564 L 3351.72 826.564 L 3357.72 835.564 L 3362.72 839.564 L 3371.72 843.564 L 3384.72 843.564 L 3395.72 839.564 L 3404.72 833.564 L 3415.72 822.564 L 3420.72 822.564 L 3438.72 836.564 L 3437.72 843.564 L 3430.72 857.564 L 3428.72 863.564 L 3428.72 878.564 L 3434.72 890.564 L 3438.72 895.564 L 3450.72 901.564 L 3467.72 901.564 L 3479.72 896.564 L 3492.72 888.564 L 3497.72 889.564 L 3512.72 906.564 L 3512.72 911.564 L 3502.72 923.564 L 3496.72 933.564 L 3494.72 940.564 L 3494.72 951.564 L 3497.72 961.564 L 3501.72 967.564 L 3509.72 974.564 L 3516.72 977.564 L 3534.72 977.564 L 3544.72 974.564 L 3550.72 971.564 L 3556.72 971.564 L 3568.72 991.564 L 3568.72 997.564 L 3555.72 1008.56 L 3548.72 1016.56 L 3544.72 1024.56 L 3543.72 1028.56 L 3543.72 1036.56 L 3547.72 1045.56 L 3552.72 1049.56 L 3560.72 1052.56 L 3613.72 1062.56 L 3614.72 1065.56 L 3453.72 1065.56 L 3449.72 1061.56 L 3441.72 1046.56 L 3429.72 1027.56 L 3416.72 1009.56 L 3402.72 992.564 L 3390.72 979.564 L 3374.72 963.564 L 3363.72 954.564 L 3348.72 942.564 L 3328.72 928.564 L 3305.72 915.564 L 3289.72 907.564 L 3274.72 900.564 L 3244.72 889.564 L 3208.72 880.564 L 3199.72 880.564 L 3197.72 886.564 L 3190.72 900.564 L 3187.72 903.564 L 3157.72 900.564 L 3122.72 900.564 L 3093.72 903.564 L 3088.72 897.564 L 3081.72 881.564 L 3079.72 880.564 L 3071.72 880.564 L 3045.72 886.564 L 3022.72 893.564 L 2995.72 904.564 L 2979.72 912.564 L 2960.72 922.564 L 2933.72 940.564 L 2919.72 951.564 L 2905.72 963.564 L 2892.72 975.564 L 2878.72 990.564 L 2868.72 1002.56 L 2853.72 1022.56 L 2842.72 1039.56 L 2831.72 1058.56 L 2827.38 1065.47 L 2665.72 1065.56 L 2665.72 1062.56 L 2702.72 1055.56 L 2720.72 1051.56 L 2729.72 1047.56 L 2734.72 1039.56 L 2735.72 1035.56 L 2735.72 1028.56 L 2731.72 1018.56 L 2725.72 1010.56 L 2715.72 1001.56 L 2710.72 997.564 L 2710.72 991.564 L 2721.72 972.564 L 2722.72 971.564 L 2729.72 972.564 L 2744.72 977.564 L 2759.72 977.564 L 2772.72 972.564 L 2779.72 965.564 L 2784.72 954.564 L 2784.72 939.564 L 2780.72 928.564 L 2772.72 917.564 L 2767.72 911.564 L 2767.72 906.564 L 2780.72 891.564 L 2783.72 888.564 L 2788.72 888.564 L 2799.72 895.564 L 2809.72 900.564 L 2812.72 901.564 L 2828.72 901.564 L 2840.72 895.564 L 2843.72 894.564 L 2851.72 878.564 L 2851.72 862.564 L 2846.72 849.564 L 2841.72 840.564 L 2842.72 835.564 L 2860.72 822.564 L 2865.72 822.564 L 2876.72 833.564 L 2887.72 840.564 L 2896.72 843.564 L 2906.72 843.564 L 2918.72 839.564 L 2926.72 832.564 L 2930.72 824.564 L 2932.72 818.564 L 2932.72 803.564 L 2928.72 788.564 L 2929.72 783.564 L 2949.72 773.564 L 2954.72 773.564 L 2962.72 784.564 L 2968.72 792.564 L 2975.72 798.564 L 2987.72 803.564 L 2997.72 803.564 L 3004.72 801.564 L 3012.72 797.564 L 3019.72 789.564 L 3023.72 780.564 L 3024.72 776.564 L 3025.72 751.564 L 3027.72 748.564 L 3052.72 744.564 L 3055.72 747.564 L 3062.72 766.564 L 3068.72 775.564 L 3077.72 782.564 L 3082.72 784.564 L 3098.72 784.564 L 3108.72 780.564 L 3115.72 774.564 L 3120.72 766.564 L 3124.72 753.564 L 3126.72 739.564 L 3128.72 736.564 L 3155.72 736.564 L 3157.72 739.564 L 3160.72 758.564 L 3165.72 771.564 L 3170.72 777.564 L 3180.72 783.564 L 3187.72 785.564 L 3199.72 784.564 L 3208.72 780.564 L 3216.72 774.564 L 3225.72 759.564 L 3229.72 747.564 L 3232.72 744.564 Z M 3133.72 807.564 L 3123.72 812.564 L 3116.72 819.564 L 3112.72 827.564 L 3111.72 832.564 L 3111.72 840.564 L 3115.72 851.564 L 3120.72 858.564 L 3131.72 865.564 L 3137.72 866.564 L 3146.72 866.564 L 3158.72 861.564 L 3165.72 854.564 L 3169.72 846.564 L 3170.72 843.564 L 3170.72 828.564 L 3165.72 818.564 L 3156.72 810.564 L 3148.72 807.564 L 3133.72 807.564 Z M 3050.72 842.564 L 3033.72 846.564 L 3008.72 854.564 L 2987.72 862.564 L 2961.72 874.564 L 2942.72 884.564 L 2921.72 897.564 L 2903.72 910.564 L 2889.72 921.564 L 2878.72 931.564 L 2870.72 938.564 L 2852.72 956.564 L 2845.72 964.564 L 2834.72 977.564 L 2820.72 996.564 L 2808.72 1015.56 L 2798.72 1032.56 L 2791.72 1046.56 L 2791.72 1050.56 L 2805.72 1050.56 L 2808.72 1043.56 L 2820.72 1022.56 L 2827.72 1011.56 L 2840.72 993.564 L 2852.72 979.564 L 2865.72 965.564 L 2872.72 957.564 L 2884.72 945.564 L 2892.72 938.564 L 2905.72 927.564 L 2917.72 918.564 L 2936.72 905.564 L 2956.72 893.564 L 2977.72 882.564 L 3006.72 870.564 L 3033.72 861.564 L 3054.72 856.564 L 3068.72 853.564 L 3069.72 849.564 L 3065.72 844.564 L 3061.72 842.564 L 3050.72 842.564 Z M 3221.72 842.564 L 3215.72 846.564 L 3213.72 852.564 L 3215.72 854.564 L 3242.72 860.564 L 3280.72 873.564 L 3300.72 882.564 L 3316.72 890.564 L 3334.72 900.564 L 3358.72 916.564 L 3375.72 929.564 L 3389.72 941.564 L 3404.72 955.564 L 3413.72 964.564 L 3420.72 972.564 L 3432.72 986.564 L 3441.72 998.564 L 3454.72 1017.56 L 3463.72 1032.56 L 3473.72 1050.56 L 3488.72 1050.56 L 3485.72 1041.56 L 3472.72 1017.56 L 3456.72 993.564 L 3447.72 981.564 L 3438.72 970.564 L 3427.72 957.564 L 3398.72 928.564 L 3387.72 919.564 L 3372.72 907.564 L 3345.72 889.564 L 3324.72 877.564 L 3295.72 863.564 L 3266.72 852.564 L 3237.72 844.564 L 3228.72 842.564 L 3221.72 842.564 Z" style="stroke-width: 1;"/><path d="M 3516.72 1314.56 L 3639.72 1314.56 L 3639.72 1317.56 L 3625.72 1320.56 L 3597.72 1327.56 L 3587.72 1333.56 L 3583.72 1339.56 L 3581.72 1346.56 L 3581.72 1354.56 L 3585.72 1365.56 L 3591.72 1373.56 L 3603.72 1382.56 L 3614.72 1388.56 L 3605.72 1417.56 L 3575.72 1417.56 L 3565.72 1421.56 L 3556.72 1429.56 L 3551.72 1438.56 L 3550.72 1444.56 L 3550.72 1453.56 L 3552.72 1461.56 L 3557.72 1470.56 L 3566.72 1480.56 L 3573.72 1487.56 L 3559.72 1513.56 L 3551.72 1512.56 L 3536.72 1506.56 L 3519.72 1506.56 L 3507.72 1512.56 L 3499.72 1521.56 L 3495.72 1531.56 L 3495.72 1542.56 L 3498.72 1554.56 L 3504.72 1565.56 L 3510.72 1573.56 L 3510.72 1579.56 L 3493.72 1597.56 L 3487.72 1597.56 L 3477.72 1590.56 L 3465.72 1584.56 L 3461.72 1583.56 L 3448.72 1583.56 L 3439.72 1587.56 L 3431.72 1593.56 L 3425.72 1603.56 L 3423.72 1610.56 L 3423.72 1622.56 L 3427.72 1635.56 L 3431.72 1643.56 L 3431.72 1649.56 L 3410.72 1664.56 L 3405.72 1664.56 L 3396.72 1654.56 L 3385.72 1646.56 L 3378.72 1643.56 L 3373.72 1642.56 L 3364.72 1642.56 L 3353.72 1646.56 L 3344.72 1654.56 L 3339.72 1665.56 L 3338.72 1672.56 L 3338.72 1681.56 L 3340.72 1693.56 L 3340.72 1700.56 L 3336.72 1703.56 L 3319.72 1710.56 L 3314.72 1709.56 L 3308.72 1700.56 L 3300.72 1689.56 L 3290.72 1682.56 L 3285.72 1680.56 L 3270.72 1680.56 L 3263.72 1683.56 L 3255.72 1689.56 L 3248.72 1701.56 L 3247.72 1706.56 L 3246.72 1730.56 L 3243.72 1732.56 L 3225.72 1735.56 L 3220.72 1735.56 L 3217.72 1730.56 L 3214.72 1720.56 L 3208.72 1708.56 L 3201.72 1701.56 L 3191.72 1696.56 L 3179.72 1696.56 L 3171.72 1699.56 L 3163.72 1706.56 L 3157.72 1718.56 L 3154.72 1732.56 L 3153.72 1739.56 L 3151.72 1741.56 L 3127.72 1741.56 L 3125.72 1739.56 L 3122.72 1720.56 L 3118.72 1710.56 L 3109.72 1700.56 L 3100.72 1696.56 L 3087.72 1696.56 L 3077.72 1701.56 L 3069.72 1710.56 L 3065.72 1718.56 L 3061.72 1732.56 L 3058.72 1735.56 L 3035.72 1732.56 L 3032.72 1729.56 L 3031.72 1708.56 L 3027.72 1694.56 L 3020.72 1686.56 L 3011.72 1681.56 L 3009.72 1680.56 L 2994.72 1680.56 L 2984.72 1684.56 L 2975.72 1692.56 L 2964.72 1709.56 L 2959.72 1710.56 L 2939.72 1702.56 L 2938.72 1701.56 L 2940.72 1681.56 L 2940.72 1672.56 L 2938.72 1662.56 L 2932.72 1652.56 L 2923.72 1645.56 L 2917.72 1643.56 L 2900.72 1643.56 L 2888.72 1649.56 L 2876.72 1660.56 L 2872.72 1664.56 L 2866.72 1663.56 L 2846.72 1649.56 L 2847.72 1642.56 L 2853.72 1628.56 L 2855.72 1619.56 L 2855.72 1611.56 L 2852.72 1601.56 L 2846.72 1593.56 L 2838.72 1587.56 L 2829.72 1583.56 L 2815.72 1583.56 L 2803.72 1588.56 L 2789.72 1597.56 L 2784.72 1597.56 L 2766.72 1578.56 L 2767.72 1573.56 L 2775.72 1562.56 L 2781.72 1549.56 L 2782.72 1545.56 L 2782.72 1531.56 L 2778.72 1521.56 L 2771.72 1513.56 L 2763.72 1508.56 L 2757.72 1506.56 L 2741.72 1506.56 L 2725.72 1512.56 L 2718.72 1513.56 L 2711.72 1503.56 L 2704.72 1491.56 L 2704.72 1486.56 L 2716.72 1475.56 L 2722.72 1466.56 L 2726.72 1455.56 L 2726.72 1441.56 L 2722.72 1431.56 L 2716.72 1424.56 L 2700.72 1417.56 L 2672.72 1417.56 L 2669.72 1412.56 L 2662.72 1392.56 L 2663.72 1388.56 L 2671.72 1383.56 L 2682.72 1376.56 L 2687.72 1371.56 L 2691.72 1366.56 L 2695.72 1357.56 L 2695.72 1343.56 L 2691.72 1335.56 L 2684.72 1329.56 L 2676.72 1326.56 L 2638.72 1317.56 L 2638.72 1315.56 L 2763.72 1315.56 L 2769.72 1319.56 L 2773.72 1325.56 L 2778.72 1345.56 L 2786.72 1370.56 L 2792.72 1383.56 L 2796.72 1394.56 L 2806.72 1413.56 L 2818.72 1434.56 L 2830.72 1452.56 L 2840.72 1466.56 L 2853.72 1482.56 L 2865.72 1496.56 L 2883.72 1514.56 L 2891.72 1521.56 L 2904.72 1532.56 L 2923.72 1546.56 L 2940.72 1557.56 L 2957.72 1567.56 L 2976.72 1577.56 L 2987.72 1581.56 L 2997.72 1586.56 L 3029.72 1597.56 L 3039.72 1599.56 L 3056.72 1599.56 L 3068.72 1593.56 L 3077.72 1582.56 L 3089.72 1557.56 L 3093.72 1554.56 L 3117.72 1556.56 L 3163.72 1556.56 L 3186.72 1554.56 L 3191.72 1558.56 L 3202.72 1582.56 L 3207.72 1590.56 L 3215.72 1596.56 L 3223.72 1599.56 L 3241.72 1599.56 L 3266.72 1592.56 L 3291.72 1582.56 L 3318.72 1569.56 L 3339.72 1557.56 L 3357.72 1545.56 L 3369.72 1536.56 L 3396.72 1513.56 L 3420.72 1489.56 L 3429.72 1478.56 L 3440.72 1464.56 L 3447.72 1454.56 L 3456.72 1441.56 L 3465.72 1426.56 L 3478.72 1402.56 L 3490.72 1374.56 L 3499.72 1347.56 L 3505.72 1323.56 L 3511.72 1316.56 L 3516.72 1314.56 Z M 2735.72 1329.56 L 2736.72 1339.56 L 2743.72 1365.56 L 2752.72 1390.56 L 2765.72 1420.56 L 2778.72 1445.56 L 2792.72 1468.56 L 2806.72 1488.56 L 2822.72 1508.56 L 2832.72 1519.56 L 2839.72 1527.56 L 2858.72 1546.56 L 2869.72 1555.56 L 2878.72 1563.56 L 2891.72 1573.56 L 2913.72 1588.56 L 2928.72 1597.56 L 2952.72 1610.56 L 2970.72 1618.56 L 2991.72 1626.56 L 3003.72 1630.56 L 3013.72 1630.56 L 3020.72 1621.56 L 3017.72 1619.56 L 3000.72 1614.56 L 2988.72 1609.56 L 2972.72 1603.56 L 2947.72 1591.56 L 2922.72 1576.56 L 2906.72 1565.56 L 2889.72 1552.56 L 2878.72 1543.56 L 2858.72 1525.56 L 2845.72 1512.56 L 2836.72 1501.56 L 2828.72 1492.56 L 2815.72 1475.56 L 2803.72 1458.56 L 2794.72 1443.56 L 2784.72 1426.56 L 2773.72 1403.56 L 2763.72 1378.56 L 2755.72 1354.56 L 2749.72 1331.56 L 2746.72 1329.56 L 2735.72 1329.56 Z M 3541.72 1329.56 L 3528.671 1329.39 L 3522.72 1354.56 L 3517.72 1371.56 L 3505.72 1402.56 L 3491.72 1431.56 L 3480.72 1450.56 L 3473.72 1461.56 L 3462.72 1477.56 L 3454.72 1487.56 L 3443.72 1501.56 L 3428.72 1517.56 L 3398.72 1546.56 L 3381.72 1559.56 L 3366.72 1570.56 L 3347.72 1582.56 L 3325.72 1594.56 L 3302.72 1605.56 L 3294.72 1609.56 L 3260.72 1620.56 L 3259.72 1626.56 L 3263.72 1630.56 L 3275.72 1630.56 L 3291.72 1625.56 L 3315.72 1615.56 L 3324.72 1611.56 L 3347.72 1599.56 L 3367.72 1587.56 L 3383.72 1576.56 L 3395.72 1567.56 L 3406.72 1558.56 L 3421.72 1545.56 L 3446.72 1520.56 L 3453.72 1512.56 L 3466.72 1496.56 L 3480.72 1477.56 L 3496.72 1451.56 L 3510.72 1424.56 L 3518.72 1407.56 L 3528.72 1381.56 L 3535.72 1359.56 L 3541.72 1329.56 Z M 3133.72 1589.56 L 3125.72 1592.56 L 3116.72 1600.56 L 3111.72 1610.56 L 3111.72 1626.56 L 3117.72 1638.56 L 3124.72 1644.56 L 3133.72 1648.56 L 3144.72 1648.56 L 3152.72 1646.56 L 3161.72 1640.56 L 3166.72 1633.56 L 3169.72 1624.56 L 3169.72 1611.56 L 3163.72 1599.56 L 3154.72 1592.56 L 3148.72 1589.56 L 3133.72 1589.56 Z" style="stroke-width: 1;"/><path d="M 2995.72 1225.56 L 2987.72 1255.56 L 2933.72 1255.56 L 2920.72 1252.56 L 2913.72 1247.56 L 2908.72 1238.56 L 2908.72 1224.56 L 2933.72 1141.56 L 2940.72 1127.56 L 2948.72 1119.56 L 2960.72 1113.56 L 2965.72 1112.56 L 3029.72 1112.56 L 3021.72 1140.56 L 2980.72 1141.56 L 2973.72 1144.56 L 2969.72 1150.56 L 2950.72 1212.56 L 2949.868 1219.915 L 2954.72 1224.56 L 2995.72 1225.56 Z" style="stroke-width: 1;"/><path d="M 3698.72 1112.56 L 3696.427 1255.535 L 3659.72 1255.56 L 3660.72 1226.56 L 3623.72 1226.56 L 3608.72 1255.56 L 3570.72 1255.56 L 3644.72 1122.56 L 3642.72 1112.56 L 3698.72 1112.56 Z M 3664.72 1150.56 L 3640.72 1196.56 L 3662.72 1196.56 L 3664.72 1150.56 Z" style="stroke-width: 1;"/><path d="M 3219.72 1255.56 L 3253.72 1141.56 L 3224.72 1141.56 L 3233.72 1112.56 L 3329.72 1112.56 L 3320.72 1140.56 L 3291.72 1140.56 L 3255.72 1255.56 L 3219.72 1255.56 Z" style="stroke-width: 1;"/><path d="M 2876.72 1112.56 L 2867.72 1141.56 L 2826.72 1142.56 L 2819.72 1144.56 L 2815.72 1149.56 L 2796.72 1213.56 L 2796.72 1221.56 L 2800.72 1224.56 L 2843.72 1225.56 L 2834.72 1255.56 L 2779.72 1255.56 L 2769.72 1253.56 L 2760.72 1247.56 L 2755.72 1237.56 L 2755.72 1227.56 L 2780.72 1139.56 L 2786.72 1128.56 L 2791.72 1122.56 L 2798.72 1117.56 L 2810.72 1112.56 L 2876.72 1112.56 Z" style="stroke-width: 1;"/><path d="M 2578.72 1255.56 L 2615.72 1130.56 L 2615.72 1125.56 L 2593.72 1112.56 L 2699.72 1112.56 L 2709.72 1116.56 L 2715.72 1123.56 L 2716.72 1125.56 L 2716.72 1140.56 L 2706.72 1167.56 L 2701.72 1172.56 L 2695.72 1177.56 L 2688.597 1180.781 L 2693.72 1183.56 L 2699.72 1190.56 L 2699.72 1204.56 L 2692.72 1228.56 L 2687.72 1237.56 L 2681.72 1244.56 L 2671.72 1250.56 L 2664.599 1254.346 L 2654.72 1255.56 L 2578.72 1255.56 Z M 2650.72 1139.56 L 2642.72 1166.56 L 2663.72 1166.56 L 2671.72 1162.56 L 2675.72 1156.56 L 2677.72 1149.56 L 2676.964 1143.082 L 2673.72 1139.56 L 2650.72 1139.56 Z M 2634.72 1193.56 L 2623.956 1226.56 L 2646.72 1226.56 L 2654.72 1223.56 L 2659.72 1215.56 L 2662.72 1204.56 L 2661.35 1197.445 L 2654.72 1193.56 L 2634.72 1193.56 Z" style="stroke-width: 1;"/></g></g></g></g></svg>